<svg xmlns="http://www.w3.org/2000/svg" width="20" height="20" viewBox="0 0 20 20">
  <path id="chart-pie" d="M10,0A10,10,0,1,0,20,10,10,10,0,0,0,10,0Zm7.977,7.6L10.554,9.043a4.117,4.117,0,0,1-.307-.566L7.464,2.061A8.323,8.323,0,0,1,17.978,7.6ZM10,18.333a8.329,8.329,0,0,1-4.063-15.6L8.718,9.141a5.843,5.843,0,0,0,1.806,2.31l5.544,4.243A8.305,8.305,0,0,1,10,18.333Zm7.083-3.962-5.1-3.907L18.3,9.237c.023.25.038.506.038.763A8.271,8.271,0,0,1,17.083,14.371Z" transform="translate(0 0)" fill="#fff"/>
</svg>
