<svg id="instagram" xmlns="http://www.w3.org/2000/svg" width="16" height="16" viewBox="0 0 16 16">
  <path id="Path_26735" data-name="Path 26735" d="M8,1.441c2.136,0,2.389.008,3.233.047a3.529,3.529,0,0,1,2.405.874,3.506,3.506,0,0,1,.874,2.405c.039.843.047,1.1.047,3.233s-.008,2.389-.047,3.233a3.547,3.547,0,0,1-.874,2.405,3.505,3.505,0,0,1-2.405.874c-.843.039-1.1.047-3.233.047s-2.389-.008-3.233-.047a3.572,3.572,0,0,1-2.405-.874,3.526,3.526,0,0,1-.874-2.405c-.039-.843-.047-1.1-.047-3.233s.008-2.389.047-3.233a3.559,3.559,0,0,1,.874-2.405,3.514,3.514,0,0,1,2.405-.874c.843-.039,1.1-.047,3.233-.047M8,0C5.827,0,5.555.009,4.7.048A4.944,4.944,0,0,0,1.343,1.343,4.936,4.936,0,0,0,.048,4.7C.009,5.555,0,5.827,0,8s.009,2.445.048,3.3a4.949,4.949,0,0,0,1.295,3.359A4.94,4.94,0,0,0,4.7,15.952C5.555,15.991,5.827,16,8,16s2.445-.009,3.3-.048a4.947,4.947,0,0,0,3.359-1.295A4.934,4.934,0,0,0,15.952,11.3c.039-.853.048-1.126.048-3.3s-.009-2.445-.048-3.3a4.946,4.946,0,0,0-1.295-3.359A4.945,4.945,0,0,0,11.3.048C10.445.009,10.173,0,8,0Z" transform="translate(0 0)" fill="#fff"/>
  <path id="Path_26736" data-name="Path 26736" d="M9.946,5.838a4.108,4.108,0,1,0,4.108,4.108A4.108,4.108,0,0,0,9.946,5.838Zm0,6.775a2.667,2.667,0,1,1,2.667-2.667A2.667,2.667,0,0,1,9.946,12.613Z" transform="translate(-1.946 -1.946)" fill="#fff"/>
  <circle id="Ellipse_5234" data-name="Ellipse 5234" cx="0.96" cy="0.96" r="0.96" transform="translate(11.311 2.769)" fill="#fff"/>
</svg>
