<svg id="interactive" xmlns="http://www.w3.org/2000/svg" width="28" height="27.996" viewBox="0 0 28 27.996">
  <path id="Path_26785" data-name="Path 26785" d="M25.712,24.062l-1.257-1.256L22.437,20.79l3.254-3.254a1.167,1.167,0,0,0-.426-1.92L14.8,11.82a2.333,2.333,0,0,0-2.988,2.987L15.621,25.27a1.166,1.166,0,0,0,1.92.426l3.251-3.26,2.015,2.015,1.256,1.256a1.167,1.167,0,1,0,1.65-1.65Zm-8.525-1.316-3.178-8.738,8.738,3.178Z" transform="translate(1.946 1.947)" fill="#fff"/>
  <path id="Path_26786" data-name="Path 26786" d="M11.667,23.333A11.667,11.667,0,1,1,23.333,11.667a1.167,1.167,0,1,1-2.333,0A9.333,9.333,0,1,0,11.667,21a1.167,1.167,0,1,1,0,2.333Z" fill="#fff"/>
  <path id="Path_26787" data-name="Path 26787" d="M8.764,17.556a1.167,1.167,0,0,1-.447-.089,7,7,0,1,1,9.154-9.14,1.167,1.167,0,1,1-2.156.891,4.667,4.667,0,1,0-6.1,6.1,1.167,1.167,0,0,1-.448,2.245Z" transform="translate(0.667 0.667)" fill="#fff"/>
</svg>
