<svg xmlns="http://www.w3.org/2000/svg" width="16.001" height="16" viewBox="0 0 16.001 16">
  <g id="linkedin" transform="translate(0 -1.782)">
    <path id="Path_2520" d="M13.634,15.416H11.263V11.7c0-.885-.016-2.025-1.233-2.025-1.235,0-1.424.964-1.424,1.961v3.777H6.235V7.78H8.512V8.823h.032A2.5,2.5,0,0,1,10.789,7.59c2.4,0,2.846,1.581,2.846,3.636ZM3.56,6.736A1.376,1.376,0,1,1,4.936,5.36,1.376,1.376,0,0,1,3.56,6.736h0m1.185,8.68H2.372V7.78H4.745ZM14.816,1.783H1.18A1.168,1.168,0,0,0,0,2.936V16.627a1.168,1.168,0,0,0,1.18,1.154H14.816A1.171,1.171,0,0,0,16,16.627V2.936a1.17,1.17,0,0,0-1.185-1.154" transform="translate(0 0)" fill="#fff"/>
  </g>
</svg>
