<svg xmlns="http://www.w3.org/2000/svg" xmlns:xlink="http://www.w3.org/1999/xlink" width="428.955" height="36.596" viewBox="0 0 428.955 36.596">
  <defs>
    <clipPath id="clip-path">
      <rect id="Rectangle_259852" data-name="Rectangle 259852" width="180" height="36.596" fill="#fff"/>
    </clipPath>
  </defs>
  <g id="Group_21629" data-name="Group 21629" transform="translate(-226.023 -4757)">
    <text id="POWERED_BY_MORNINGTRAIN" data-name="POWERED BY MORNINGTRAIN" transform="translate(446.977 4778)" fill="#16d3aa" font-size="12" font-family="DMSans-Medium, DM Sans" font-weight="500" letter-spacing="0.15em"><tspan x="0" y="0">POWERED BY MORNINGTRAIN</tspan></text>
    <rect id="Rectangle_259857" data-name="Rectangle 259857" width="14" height="0.955" rx="0.477" transform="translate(426.023 4780) rotate(-90)" fill="#16d3aa" stroke="#16d3aa" stroke-width="0.5"/>
    <g id="Group_21611" data-name="Group 21611" transform="translate(226.023 4757)" clip-path="url(#clip-path)">
      <path id="Path_26708" data-name="Path 26708" d="M16.929,28.545A11.62,11.62,0,0,1,7.2,23.288,10.977,10.977,0,0,1,5.55,19.315a11.622,11.622,0,0,1,19.593-10.6L28.9,4.959a16.929,16.929,0,1,0,0,23.94l-3.757-3.757a11.54,11.54,0,0,1-8.214,3.4" transform="translate(0)" fill="#16d3aa"/>
      <path id="Path_26709" data-name="Path 26709" d="M66.627,62.979a3.642,3.642,0,1,1-3.642,3.642,3.646,3.646,0,0,1,3.642-3.642m0-4.517a8.16,8.16,0,1,0,8.16,8.16,8.16,8.16,0,0,0-8.16-8.16" transform="translate(-49.697 -49.693)" fill="#16d3aa"/>
      <path id="Path_26710" data-name="Path 26710" d="M814.815,80.144a6.142,6.142,0,0,1-5.942,4.254,6.327,6.327,0,0,1-.022-12.654,6.217,6.217,0,0,1,5.963,4.339h-3.206a2.95,2.95,0,0,0-2.757-1.731,3.457,3.457,0,0,0-3.441,3.719,3.558,3.558,0,0,0,3.57,3.719,3.048,3.048,0,0,0,2.629-1.646Z" transform="translate(-682.182 -60.982)" fill="#fff"/>
      <path id="Path_26711" data-name="Path 26711" d="M906.3,84.013h-2.608V82.538a5.872,5.872,0,0,1-4.148,1.86c-3.056,0-5.771-2.437-5.771-6.391a6,6,0,0,1,5.943-6.263,5.067,5.067,0,0,1,3.932,1.9h.043v-1.5H906.3Zm-6.157-9.661a3.6,3.6,0,0,0-3.526,3.783,3.545,3.545,0,0,0,3.526,3.655,3.729,3.729,0,0,0,0-7.438" transform="translate(-759.704 -60.982)" fill="#fff"/>
      <path id="Path_26712" data-name="Path 26712" d="M989.779,54.565h-1.39V52.043h1.39V48.089h2.842v3.954h1.71v2.522h-1.71v9.341h-2.842Z" transform="translate(-840.13 -40.876)" fill="#fff"/>
      <path id="Path_26713" data-name="Path 26713" d="M1047.092,80.144a6.143,6.143,0,0,1-5.943,4.254,6.327,6.327,0,0,1-.021-12.654,6.218,6.218,0,0,1,5.964,4.339h-3.206a2.953,2.953,0,0,0-2.758-1.731,3.456,3.456,0,0,0-3.44,3.719,3.557,3.557,0,0,0,3.569,3.719,3.049,3.049,0,0,0,2.629-1.646Z" transform="translate(-879.617 -60.982)" fill="#fff"/>
      <path id="Path_26714" data-name="Path 26714" d="M1129.893,48.089h2.842v4.788a4.217,4.217,0,0,1,3.078-1.24,4.906,4.906,0,0,1,3.655,1.817,6.1,6.1,0,0,1,.94,3.762v6.69h-2.842v-6.07c0-1.282-.085-3.591-2.438-3.591-2.393,0-2.393,2.629-2.393,3.634v6.028h-2.842Z" transform="translate(-960.409 -40.876)" fill="#fff"/>
      <path id="Path_26715" data-name="Path 26715" d="M235.115,73.088A.084.084,0,0,1,235.2,73h2.388a.084.084,0,0,1,.085.085v1.024a4.018,4.018,0,0,1,3.156-1.365,4.215,4.215,0,0,1,2.048.427,4.884,4.884,0,0,1,1.365,1.28c0,.085.085.085.171,0a4.444,4.444,0,0,1,3.669-1.706c3.242,0,4.863,1.791,4.863,5.289V84.69a.084.084,0,0,1-.085.085h-2.645a.084.084,0,0,1-.085-.085v-6.4a3.679,3.679,0,0,0-.512-2.3,1.855,1.855,0,0,0-1.706-.683,2.084,2.084,0,0,0-1.877.853,6.43,6.43,0,0,0-.6,2.815V84.69a.084.084,0,0,1-.085.085h-2.645a.084.084,0,0,1-.085-.085v-6.4a3.747,3.747,0,0,0-.6-2.3,1.855,1.855,0,0,0-1.706-.683,1.943,1.943,0,0,0-1.791.853c-.6.512-.682,1.536-.682,2.815V84.69a.084.084,0,0,1-.085.085h-2.572a.073.073,0,0,1-.073-.073Z" transform="translate(-199.848 -61.828)" fill="#fff"/>
      <path id="Path_26716" data-name="Path 26716" d="M372.029,72.776a5.923,5.923,0,0,0-4.351,1.792,6.309,6.309,0,0,0-1.876,4.095,6.193,6.193,0,0,0,6.227,6.569,6.2,6.2,0,0,0,4.436-1.877A6,6,0,0,0,378.342,79v-.171a6.19,6.19,0,0,0-6.313-6.057m2.388,8.787-.17.171a3.174,3.174,0,0,1-4.607-.171,3.711,3.711,0,0,1,0-5.119,2.91,2.91,0,0,1,2.389-1.109,3.174,3.174,0,0,1,2.388,1.109,3.711,3.711,0,0,1,0,5.119" transform="translate(-310.913 -61.858)" fill="#fff"/>
      <path id="Path_26717" data-name="Path 26717" d="M460.333,85.086v-11.6a.084.084,0,0,1,.086-.085h2.388a.084.084,0,0,1,.085.085v1.109a2.529,2.529,0,0,1,2.559-1.365h.256v2.645a.3.3,0,0,1-.171.085c-1.621,0-2.388,1.024-2.388,2.815v6.483a.084.084,0,0,1-.086.085h-2.644a.313.313,0,0,1-.086-.256" transform="translate(-391.283 -62.224)" fill="#fff"/>
      <path id="Path_26718" data-name="Path 26718" d="M505.832,84.549v-11.6a.084.084,0,0,1,.085-.085h2.389a.084.084,0,0,1,.085.085v1.024a6.382,6.382,0,0,1,1.535-1.109,3.294,3.294,0,0,1,1.792-.256,4.561,4.561,0,0,1,3.5,1.365c.768.938,1.109,2.389,1.109,4.436v6.228a.083.083,0,0,1-.085.085H513.6a.083.083,0,0,1-.085-.085V78.919a5.67,5.67,0,0,0-.512-2.9,1.942,1.942,0,0,0-1.792-.853,2.035,2.035,0,0,0-1.962.938,5.528,5.528,0,0,0-.6,3.071v5.46a.083.083,0,0,1-.085.085h-2.645a.3.3,0,0,1-.085-.171" transform="translate(-429.957 -61.688)" fill="#fff"/>
      <path id="Path_26719" data-name="Path 26719" d="M592.11,42.7a1.536,1.536,0,1,1-1.535,1.536A1.536,1.536,0,0,1,592.11,42.7" transform="translate(-501.988 -36.296)" fill="#fff"/>
      <path id="Path_26720" data-name="Path 26720" d="M591.142,74.578a.084.084,0,0,1,.085-.085h2.644a.084.084,0,0,1,.086.085v11.6a.084.084,0,0,1-.086.085h-2.655a.075.075,0,0,1-.075-.075Z" transform="translate(-502.471 -63.319)" fill="#fff"/>
      <path id="Path_26721" data-name="Path 26721" d="M625.267,84.549v-11.6a.084.084,0,0,1,.085-.085h2.389a.084.084,0,0,1,.085.085v1.024a6.382,6.382,0,0,1,1.535-1.109,3.293,3.293,0,0,1,1.791-.256,4.561,4.561,0,0,1,3.5,1.365c.768.938,1.109,2.389,1.109,4.436v6.228a.083.083,0,0,1-.085.085H633.03a.083.083,0,0,1-.085-.085V78.919a5.668,5.668,0,0,0-.512-2.9,1.942,1.942,0,0,0-1.792-.853,2.036,2.036,0,0,0-1.963.938,5.531,5.531,0,0,0-.6,3.071v5.46a.084.084,0,0,1-.086.085h-2.645a.3.3,0,0,1-.085-.171" transform="translate(-531.477 -61.688)" fill="#fff"/>
      <path id="Path_26722" data-name="Path 26722" d="M713.27,72.776a5.924,5.924,0,0,0-4.351,1.792,6.308,6.308,0,0,0-1.876,4.095,6.193,6.193,0,0,0,6.227,6.569,6.2,6.2,0,0,0,4.436-1.877A6,6,0,0,0,719.583,79v-.171a6.19,6.19,0,0,0-6.313-6.057m2.389,8.787-.17.171a3.174,3.174,0,0,1-4.607-.171,3.711,3.711,0,0,1,0-5.119,2.91,2.91,0,0,1,2.388-1.109,3.174,3.174,0,0,1,2.389,1.109,3.71,3.71,0,0,1,0,5.119" transform="translate(-600.968 -61.858)" fill="#fff"/>
      <path id="Path_26723" data-name="Path 26723" d="M713.27,160.929a5.925,5.925,0,0,0-4.351,1.792,6.308,6.308,0,0,0-1.876,4.095,6.193,6.193,0,0,0,6.227,6.569,6.2,6.2,0,0,0,4.436-1.877,6,6,0,0,0,1.877-4.351v-.17a6.19,6.19,0,0,0-6.313-6.057m2.389,8.787-.17.171a3.174,3.174,0,0,1-4.607-.171,3.711,3.711,0,0,1,0-5.119,2.909,2.909,0,0,1,2.388-1.109,3.175,3.175,0,0,1,2.389,1.109,3.71,3.71,0,0,1,0,5.119" transform="translate(-600.968 -136.788)" fill="#fff"/>
    </g>
  </g>
</svg>
