<svg xmlns="http://www.w3.org/2000/svg" xmlns:xlink="http://www.w3.org/1999/xlink" width="694.419" height="381.845" viewBox="0 0 694.419 381.845">
  <defs>
    <linearGradient id="linear-gradient" x1="0.5" x2="0.5" y2="1" gradientUnits="objectBoundingBox">
      <stop offset="0" stop-color="#16d3aa"/>
      <stop offset="1" stop-color="#16d3aa" stop-opacity="0"/>
    </linearGradient>
  </defs>
  <g id="Group_21541" data-name="Group 21541" transform="translate(7 3)">
    <g id="Group_21542" data-name="Group 21542">
      <text id="_12" data-name="12" transform="translate(681.419 374.845)" fill="#fff" font-size="12" font-family="DMSans-Regular, DM Sans"><tspan x="-5.244" y="0">12</tspan></text>
      <text id="_11" data-name="11" transform="translate(620.778 374.845)" fill="#fff" font-size="12" font-family="DMSans-Regular, DM Sans"><tspan x="-3.624" y="0">11</tspan></text>
      <text id="_10" data-name="10" transform="translate(560.022 374.845)" fill="#fff" font-size="12" font-family="DMSans-Regular, DM Sans"><tspan x="-5.97" y="0">10</tspan></text>
      <text id="_9" data-name="9" transform="translate(499.381 374.845)" fill="#fff" font-size="12" font-family="DMSans-Regular, DM Sans"><tspan x="-3.78" y="0">9</tspan></text>
      <text id="_8" data-name="8" transform="translate(440.74 374.845)" fill="#fff" font-size="12" font-family="DMSans-Regular, DM Sans"><tspan x="-3.66" y="0">8</tspan></text>
      <text id="_7" data-name="7" transform="translate(383.128 374.845)" fill="#fff" font-size="12" font-family="DMSans-Regular, DM Sans"><tspan x="-3.198" y="0">7</tspan></text>
      <text id="_6" data-name="6" transform="translate(324.487 374.845)" fill="#fff" font-size="12" font-family="DMSans-Regular, DM Sans"><tspan x="-3.78" y="0">6</tspan></text>
      <text id="_5" data-name="5" transform="translate(265.846 374.845)" fill="#fff" font-size="12" font-family="DMSans-Regular, DM Sans"><tspan x="-3.672" y="0">5</tspan></text>
      <text id="_4" data-name="4" transform="translate(207.205 374.845)" fill="#fff" font-size="12" font-family="DMSans-Regular, DM Sans"><tspan x="-3.63" y="0">4</tspan></text>
      <text id="_3" data-name="3" transform="translate(148.564 374.845)" fill="#fff" font-size="12" font-family="DMSans-Regular, DM Sans"><tspan x="-3.528" y="0">3</tspan></text>
      <text id="_2" data-name="2" transform="translate(89.924 374.845)" fill="#fff" font-size="12" font-family="DMSans-Regular, DM Sans"><tspan x="-3.432" y="0">2</tspan></text>
      <text id="_1" data-name="1" transform="translate(32.369 374.845)" fill="#fff" font-size="12" font-family="DMSans-Regular, DM Sans"><tspan x="-1.812" y="0">1</tspan></text>
    </g>
    <g id="Group_21543" data-name="Group 21543">
      <text id="_0" data-name="0" transform="translate(19.374 351.587)" fill="#fff" font-size="12" font-family="DMSans-Regular, DM Sans"><tspan x="-8.316" y="0">0</tspan></text>
      <text id="_100" data-name="100" transform="translate(18.086 294.489)" fill="#fff" font-size="12" font-family="DMSans-Regular, DM Sans"><tspan x="-20.256" y="0">100</tspan></text>
      <text id="_200" data-name="200" transform="translate(18.514 237.392)" fill="#fff" font-size="12" font-family="DMSans-Regular, DM Sans"><tspan x="-23.376" y="0">200</tspan></text>
      <text id="_300" data-name="300" transform="translate(18.514 180.294)" fill="#fff" font-size="12" font-family="DMSans-Regular, DM Sans"><tspan x="-23.688" y="0">300</tspan></text>
      <text id="_400" data-name="400" transform="translate(18 123.196)" fill="#fff" font-size="12" font-family="DMSans-Regular, DM Sans"><tspan x="-23.892" y="0">400</tspan></text>
      <text id="_500" data-name="500" transform="translate(18 66.099)" fill="#fff" font-size="12" font-family="DMSans-Regular, DM Sans"><tspan x="-23.976" y="0">500</tspan></text>
      <text id="_600" data-name="600" transform="translate(18 9)" fill="#fff" font-size="12" font-family="DMSans-Regular, DM Sans"><tspan x="-24.192" y="0">600</tspan></text>
    </g>
    <line id="Line_1" data-name="Line 1" x2="650.76" transform="translate(33.04 352.042)" fill="none" stroke="#8c88a2" stroke-miterlimit="10" stroke-width="0.25"/>
    <line id="Line_8" data-name="Line 8" y2="352.141" transform="translate(683.748 0)" fill="none" stroke="#8c88a2" stroke-miterlimit="10" stroke-width="0.25"/>
    <g id="Group_21546" data-name="Group 21546">
      <line id="Line_20" data-name="Line 20" y2="352.242" transform="translate(624.593)" fill="none" stroke="#fff" stroke-miterlimit="10" stroke-width="0.25"/>
      <line id="Line_21" data-name="Line 21" y2="352.242" transform="translate(565.438)" fill="none" stroke="#fff" stroke-miterlimit="10" stroke-width="0.25"/>
      <line id="Line_12" data-name="Line 12" y2="352.242" transform="translate(506.282)" fill="none" stroke="#fff" stroke-miterlimit="10" stroke-width="0.25"/>
      <line id="Line_13" data-name="Line 13" y2="352.242" transform="translate(447.127)" fill="none" stroke="#fff" stroke-miterlimit="10" stroke-width="0.25"/>
      <line id="Line_14" data-name="Line 14" y2="352.242" transform="translate(387.972)" fill="none" stroke="#fff" stroke-miterlimit="10" stroke-width="0.25"/>
      <line id="Line_15" data-name="Line 15" y2="352.242" transform="translate(328.816)" fill="none" stroke="#fff" stroke-miterlimit="10" stroke-width="0.25"/>
      <line id="Line_10" data-name="Line 10" y2="352.242" transform="translate(269.661)" fill="none" stroke="#fff" stroke-miterlimit="10" stroke-width="0.25"/>
      <line id="Line_11" data-name="Line 11" y2="352.242" transform="translate(210.506)" fill="none" stroke="#fff" stroke-miterlimit="10" stroke-width="0.25"/>
      <line id="Line_9" data-name="Line 9" y2="352.242" transform="translate(151.351)" fill="none" stroke="#fff" stroke-miterlimit="10" stroke-width="0.25"/>
      <line id="Line_7" data-name="Line 7" y2="352.242" transform="translate(92.195)" fill="none" stroke="#fff" stroke-miterlimit="10" stroke-width="0.25"/>
      <line id="Line_2" data-name="Line 2" y1="352.141" transform="translate(33.04 0.001)" fill="none" stroke="#fff" stroke-miterlimit="10" stroke-width="0.25"/>
    </g>
    <path id="Path_26651" data-name="Path 26651" d="M682.518,117.02c-28.823,0-64.97-78.26-109.455-78.26S515.23,111.33,466.3,111.33,404.013,77.18,356.564,77.18s-59.317,62.607-108.252,62.607S188.995,74.335,138.576,74.335,82.228,93.59,31.809,93.59V263.173H682.5Z" transform="translate(1.231 88.746)" opacity="0.16" fill="url(#linear-gradient)"/>
    <path id="Path_26653" data-name="Path 26653" d="M682.518,117.02c-28.823,0-64.97-78.26-109.455-78.26S515.23,111.33,466.3,111.33,404.013,77.18,356.564,77.18s-59.317,62.607-108.252,62.607S188.995,74.335,138.576,74.335,82.228,93.59,31.809,93.59" transform="translate(1.231 88.746)" fill="none" stroke="#16d3aa" stroke-linecap="round" stroke-linejoin="round" stroke-width="1"/>
  </g>
</svg>
