<svg xmlns="http://www.w3.org/2000/svg" width="20" height="20" viewBox="0 0 20 20">
  <path id="rocket-lunch" d="M14.974,7.074a2.081,2.081,0,1,1-2.081-2.081A2.081,2.081,0,0,1,14.974,7.074Zm0,5.714A9.208,9.208,0,0,1,14,16.59a6.353,6.353,0,0,1-5.685,3.383H7.485V15.4a2.927,2.927,0,0,0-2.913-2.913H-.005v-.832A6.353,6.353,0,0,1,3.378,5.966,9.208,9.208,0,0,1,7.18,5,12.888,12.888,0,0,1,17.448,0h0a2.5,2.5,0,0,1,2.52,2.5,12.905,12.905,0,0,1-5,10.291ZM1.729,10.819H3.611A28.6,28.6,0,0,1,5.783,6.855a7.484,7.484,0,0,0-1.659.6,4.593,4.593,0,0,0-2.4,3.365Zm11.384,3.366a28.6,28.6,0,0,1-3.964,2.171v1.882a4.593,4.593,0,0,0,3.365-2.4A7.484,7.484,0,0,0,13.113,14.185ZM18.3,2.473a.832.832,0,0,0-.832-.809c-4.294.122-7.2,1.768-10,5.677A24.9,24.9,0,0,0,5.413,10.9a4.577,4.577,0,0,1,3.662,3.662A24.9,24.9,0,0,0,12.629,12.5C16.536,9.7,18.181,6.791,18.3,2.473ZM5.089,14.879a2.509,2.509,0,0,1,0,3.53c-.755.754-3.014,1.219-3.951,1.385L-.032,20l.206-1.17c.166-.937.631-3.2,1.385-3.951A2.557,2.557,0,0,1,5.089,14.879Zm-.934,1.765a.832.832,0,0,0-1.421-.588,6.09,6.09,0,0,0-.66,1.837,6.11,6.11,0,0,0,1.838-.661A.826.826,0,0,0,4.156,16.644Z" transform="translate(0.032 0)" fill="#155748"/>
</svg>
