<svg id="trash" xmlns="http://www.w3.org/2000/svg" width="16.667" height="20" viewBox="0 0 16.667 20">
  <path id="Path_26732" data-name="Path 26732" d="M17.833,3.333H15.25A4.174,4.174,0,0,0,11.167,0H9.5A4.174,4.174,0,0,0,5.417,3.333H2.833A.833.833,0,1,0,2.833,5h.833V15.833A4.172,4.172,0,0,0,7.833,20h5A4.172,4.172,0,0,0,17,15.833V5h.833a.833.833,0,0,0,0-1.667ZM9.5,1.667h1.667a2.505,2.505,0,0,1,2.358,1.667H7.143A2.505,2.505,0,0,1,9.5,1.667Zm5.833,14.167a2.5,2.5,0,0,1-2.5,2.5h-5a2.5,2.5,0,0,1-2.5-2.5V5h10Z" transform="translate(-2)" fill="#fff"/>
  <path id="Path_26733" data-name="Path 26733" d="M9.833,16.667a.833.833,0,0,0,.833-.833v-5a.833.833,0,1,0-1.667,0v5A.833.833,0,0,0,9.833,16.667Z" transform="translate(-3.167 -1.667)" fill="#fff"/>
  <path id="Path_26734" data-name="Path 26734" d="M13.833,16.667a.833.833,0,0,0,.833-.833v-5a.833.833,0,1,0-1.667,0v5A.833.833,0,0,0,13.833,16.667Z" transform="translate(-3.833 -1.667)" fill="#fff"/>
</svg>
