<svg xmlns="http://www.w3.org/2000/svg" width="19.692" height="16" viewBox="0 0 19.692 16">
  <path id="Logo_00000038394049246713568260000012923108920998390947_" d="M17.676,6.233c.011.173.011.347.011.522a11.417,11.417,0,0,1-11.5,11.5v0A11.435,11.435,0,0,1,0,16.436a8.105,8.105,0,0,0,5.979-1.675A4.045,4.045,0,0,1,2.2,11.955a4.042,4.042,0,0,0,1.824-.069A4.04,4.04,0,0,1,.788,7.925V7.874a4,4,0,0,0,1.834.505A4.043,4.043,0,0,1,1.37,2.987,11.472,11.472,0,0,0,9.7,7.208a4.044,4.044,0,0,1,6.885-3.685,8.1,8.1,0,0,0,2.566-.98,4.059,4.059,0,0,1-1.776,2.235,8.115,8.115,0,0,0,2.321-.637A8.211,8.211,0,0,1,17.676,6.233Z" transform="translate(0 -2.25)" fill="#fff"/>
</svg>
