<svg id="user-2" xmlns="http://www.w3.org/2000/svg" width="18.058" height="27.086" viewBox="0 0 18.058 27.086">
  <path id="Path_8715" data-name="Path 8715" d="M93.736,298.683a9.243,9.243,0,0,0-8.41,9.328v.245a1.693,1.693,0,0,0,1.693,1.693h0a1.693,1.693,0,0,0,1.693-1.693v-.313a5.816,5.816,0,0,1,5.079-5.869,5.65,5.65,0,0,1,6.18,5.065q.027.275.028.552v.564a1.693,1.693,0,0,0,1.693,1.693h0a1.693,1.693,0,0,0,1.693-1.693v-.564a9.039,9.039,0,0,0-9.049-9.029Q94.035,298.663,93.736,298.683Z" transform="translate(-85.325 -282.863)" fill="#021a2e"/>
  <path id="Path_8716" data-name="Path 8716" d="M134.779,13.543a6.771,6.771,0,1,0-6.771-6.771A6.771,6.771,0,0,0,134.779,13.543Zm0-10.157a3.386,3.386,0,1,1-3.386,3.386A3.386,3.386,0,0,1,134.779,3.386Z" transform="translate(-125.75)" fill="#021a2e"/>
</svg>
