<svg xmlns="http://www.w3.org/2000/svg" xmlns:xlink="http://www.w3.org/1999/xlink" width="208" height="42.289" viewBox="0 0 208 42.289">
  <defs>
    <clipPath id="clip-path">
      <rect id="Rectangle_188925" data-name="Rectangle 188925" width="208" height="42.289" fill="#fff"/>
    </clipPath>
  </defs>
  <g id="Group_21544" data-name="Group 21544" transform="translate(-1 -4)">
    <g id="Group_21521" data-name="Group 21521" transform="translate(1 4)" clip-path="url(#clip-path)">
      <path id="Path_26632" data-name="Path 26632" d="M19.563,32.985A13.427,13.427,0,0,1,8.316,26.911a12.684,12.684,0,0,1-1.9-4.592A13.43,13.43,0,0,1,29.054,10.071L33.4,5.73a19.562,19.562,0,1,0,0,27.664l-4.341-4.341a13.335,13.335,0,0,1-9.492,3.932" transform="translate(0)" fill="#16d3aa"/>
      <path id="Path_26633" data-name="Path 26633" d="M67.9,63.682a4.209,4.209,0,1,1-4.209,4.209A4.214,4.214,0,0,1,67.9,63.682m0-5.22a9.429,9.429,0,1,0,9.429,9.429A9.429,9.429,0,0,0,67.9,58.462" transform="translate(-48.333 -48.329)" fill="#16d3aa"/>
      <path id="Path_26634" data-name="Path 26634" d="M816.721,81.451a7.1,7.1,0,0,1-6.866,4.915,7.311,7.311,0,0,1-.025-14.622,7.184,7.184,0,0,1,6.891,5.014h-3.705a3.409,3.409,0,0,0-3.186-2,4,4,0,0,0-3.977,4.3,4.111,4.111,0,0,0,4.125,4.3,3.523,3.523,0,0,0,3.038-1.9Z" transform="translate(-663.456 -59.308)" fill="#fff"/>
      <path id="Path_26635" data-name="Path 26635" d="M908.243,85.922H905.23v-1.7a6.783,6.783,0,0,1-4.792,2.149c-3.532,0-6.669-2.816-6.669-7.385a6.927,6.927,0,0,1,6.867-7.237,5.853,5.853,0,0,1,4.545,2.2h.049V72.213h3.013ZM901.13,74.757a4.163,4.163,0,0,0-4.075,4.372,4.1,4.1,0,0,0,4.075,4.224,4.309,4.309,0,0,0,0-8.6" transform="translate(-738.849 -59.308)" fill="#fff"/>
      <path id="Path_26636" data-name="Path 26636" d="M989.994,55.573h-1.606V52.658h1.606V48.089h3.285v4.569h1.976v2.915h-1.976V66.367h-3.285Z" transform="translate(-817.067 -39.754)" fill="#fff"/>
      <path id="Path_26637" data-name="Path 26637" d="M1049,81.451a7.1,7.1,0,0,1-6.867,4.915,7.311,7.311,0,0,1-.025-14.622A7.184,7.184,0,0,1,1049,76.758h-3.7a3.409,3.409,0,0,0-3.186-2,4,4,0,0,0-3.977,4.3,4.111,4.111,0,0,0,4.125,4.3,3.524,3.524,0,0,0,3.038-1.9Z" transform="translate(-855.47 -59.308)" fill="#fff"/>
      <path id="Path_26638" data-name="Path 26638" d="M1129.891,48.089h3.285v5.533a4.875,4.875,0,0,1,3.557-1.433,5.67,5.67,0,0,1,4.224,2.1,7.048,7.048,0,0,1,1.087,4.347v7.731h-3.285V59.352c0-1.482-.1-4.15-2.816-4.15-2.767,0-2.767,3.038-2.767,4.2v6.965h-3.285Z" transform="translate(-934.043 -39.754)" fill="#fff"/>
      <path id="Path_26639" data-name="Path 26639" d="M235.115,73.142a.1.1,0,0,1,.1-.1h2.76a.1.1,0,0,1,.1.1v1.183a4.644,4.644,0,0,1,3.647-1.577,4.869,4.869,0,0,1,2.366.493,5.644,5.644,0,0,1,1.577,1.479c0,.1.1.1.2,0a5.135,5.135,0,0,1,4.239-1.972c3.746,0,5.619,2.07,5.619,6.112v7.689a.1.1,0,0,1-.1.1h-3.056a.1.1,0,0,1-.1-.1V79.155a4.25,4.25,0,0,0-.591-2.662A2.143,2.143,0,0,0,249.9,75.7a2.408,2.408,0,0,0-2.169.986,7.429,7.429,0,0,0-.69,3.253v6.6a.1.1,0,0,1-.1.1h-3.056a.1.1,0,0,1-.1-.1V79.155a4.33,4.33,0,0,0-.69-2.662,2.144,2.144,0,0,0-1.972-.789,2.245,2.245,0,0,0-2.07.986c-.69.592-.789,1.775-.789,3.253v6.6a.1.1,0,0,1-.1.1H235.2a.084.084,0,0,1-.084-.084Z" transform="translate(-194.362 -60.131)" fill="#fff"/>
      <path id="Path_26640" data-name="Path 26640" d="M373,72.776a6.846,6.846,0,0,0-5.028,2.07,7.292,7.292,0,0,0-2.169,4.732,7.157,7.157,0,0,0,7.2,7.591A7.16,7.16,0,0,0,378.127,85a6.937,6.937,0,0,0,2.169-5.028v-.2a7.153,7.153,0,0,0-7.295-7m2.76,10.154-.2.2a3.667,3.667,0,0,1-5.323-.2,4.288,4.288,0,0,1,0-5.915A3.363,3.363,0,0,1,373,75.734a3.668,3.668,0,0,1,2.76,1.282,4.288,4.288,0,0,1,0,5.915" transform="translate(-302.378 -60.16)" fill="#fff"/>
      <path id="Path_26641" data-name="Path 26641" d="M460.333,86.934V73.527a.1.1,0,0,1,.1-.1h2.76a.1.1,0,0,1,.1.1v1.282a2.922,2.922,0,0,1,2.957-1.577h.3v3.056a.344.344,0,0,1-.2.1c-1.873,0-2.76,1.183-2.76,3.253v7.492a.1.1,0,0,1-.1.1h-3.056a.362.362,0,0,1-.1-.3" transform="translate(-380.542 -60.516)" fill="#fff"/>
      <path id="Path_26642" data-name="Path 26642" d="M505.832,86.412V73a.1.1,0,0,1,.1-.1h2.76a.1.1,0,0,1,.1.1v1.183a7.385,7.385,0,0,1,1.774-1.282,3.806,3.806,0,0,1,2.07-.3,5.271,5.271,0,0,1,4.042,1.577c.887,1.084,1.281,2.76,1.281,5.126v7.2a.1.1,0,0,1-.1.1H514.8a.1.1,0,0,1-.1-.1v-6.6a6.553,6.553,0,0,0-.591-3.352,2.244,2.244,0,0,0-2.07-.986,2.351,2.351,0,0,0-2.267,1.084,6.388,6.388,0,0,0-.69,3.549v6.309a.1.1,0,0,1-.1.1h-3.056a.344.344,0,0,1-.1-.2" transform="translate(-418.154 -59.994)" fill="#fff"/>
      <path id="Path_26643" data-name="Path 26643" d="M592.348,42.7a1.774,1.774,0,1,1-1.774,1.774,1.774,1.774,0,0,1,1.774-1.774" transform="translate(-488.208 -35.299)" fill="#fff"/>
      <path id="Path_26644" data-name="Path 26644" d="M591.142,74.592a.1.1,0,0,1,.1-.1H594.3a.1.1,0,0,1,.1.1V88a.1.1,0,0,1-.1.1h-3.068a.087.087,0,0,1-.086-.086Z" transform="translate(-488.677 -61.581)" fill="#fff"/>
      <path id="Path_26645" data-name="Path 26645" d="M625.266,86.412V73a.1.1,0,0,1,.1-.1h2.76a.1.1,0,0,1,.1.1v1.183A7.383,7.383,0,0,1,630,72.906a3.807,3.807,0,0,1,2.07-.3,5.271,5.271,0,0,1,4.042,1.577c.887,1.084,1.282,2.76,1.282,5.126v7.2a.1.1,0,0,1-.1.1h-3.056a.1.1,0,0,1-.1-.1v-6.6a6.552,6.552,0,0,0-.591-3.352,2.244,2.244,0,0,0-2.07-.986,2.351,2.351,0,0,0-2.267,1.084,6.389,6.389,0,0,0-.69,3.549v6.309a.1.1,0,0,1-.1.1h-3.056a.344.344,0,0,1-.1-.2" transform="translate(-516.886 -59.994)" fill="#fff"/>
      <path id="Path_26646" data-name="Path 26646" d="M714.242,72.776a6.845,6.845,0,0,0-5.028,2.07,7.293,7.293,0,0,0-2.169,4.732,7.157,7.157,0,0,0,7.2,7.591A7.16,7.16,0,0,0,719.368,85a6.938,6.938,0,0,0,2.169-5.028v-.2a7.153,7.153,0,0,0-7.295-7M717,82.93l-.2.2a3.667,3.667,0,0,1-5.323-.2,4.288,4.288,0,0,1,0-5.915,3.363,3.363,0,0,1,2.76-1.282A3.668,3.668,0,0,1,717,77.015a4.288,4.288,0,0,1,0,5.915" transform="translate(-584.47 -60.16)" fill="#fff"/>
      <path id="Path_26647" data-name="Path 26647" d="M714.242,160.929a6.846,6.846,0,0,0-5.028,2.07,7.293,7.293,0,0,0-2.169,4.732,7.157,7.157,0,0,0,7.2,7.591,7.16,7.16,0,0,0,5.126-2.169,6.938,6.938,0,0,0,2.169-5.028v-.2a7.154,7.154,0,0,0-7.295-7M717,171.083l-.2.2a3.667,3.667,0,0,1-5.323-.2,4.288,4.288,0,0,1,0-5.915,3.362,3.362,0,0,1,2.76-1.281,3.668,3.668,0,0,1,2.76,1.281,4.288,4.288,0,0,1,0,5.915" transform="translate(-584.47 -133.033)" fill="#fff"/>
    </g>
  </g>
</svg>
